<svg width="106" height="60" viewBox="0 0 106 60" fill="none" xmlns="http://www.w3.org/2000/svg">
<path d="M48.9668 50.0508C49.2254 50.0509 49.4373 50.1274 49.6016 50.2803C49.7672 50.4316 49.8506 50.6194 49.8506 50.8438C49.8506 50.9918 49.8131 51.1286 49.7383 51.2539C49.6634 51.3776 49.54 51.5013 49.3691 51.625L49.1279 51.8008L49.8135 52.6113C49.9127 52.4161 49.9628 52.199 49.9629 51.96H50.4775C50.4775 52.3976 50.3749 52.7563 50.1699 53.0361L50.6924 53.6543H50.0039L49.8037 53.417C49.5498 53.6074 49.2471 53.7031 48.8955 53.7031C48.5441 53.7031 48.2623 53.6102 48.0508 53.4248C47.8408 53.2376 47.7363 52.9938 47.7363 52.6943C47.7363 52.5301 47.7807 52.3798 47.8701 52.2432C47.9596 52.1048 48.1367 51.9408 48.4004 51.752C48.262 51.5778 48.1647 51.4297 48.1094 51.3076C48.0557 51.1857 48.0294 51.0679 48.0293 50.9541C48.0293 50.6758 48.1139 50.4561 48.2832 50.2949C48.4525 50.1322 48.6803 50.0508 48.9668 50.0508ZM53.6787 50.0508C54.0707 50.0509 54.3868 50.157 54.626 50.3701C54.8651 50.5833 55.0039 50.8846 55.043 51.2734H54.4277C54.3984 51.0179 54.3236 50.834 54.2031 50.7217C54.0844 50.6078 53.9096 50.5509 53.6787 50.5508C53.4102 50.5508 53.2035 50.6497 53.0586 50.8467C52.9154 51.042 52.8421 51.3288 52.8389 51.708V52.0234C52.8389 52.4073 52.9073 52.7006 53.0439 52.9023C53.1823 53.1038 53.3844 53.2051 53.6494 53.2051C53.8917 53.205 54.0743 53.15 54.1963 53.041C54.3181 52.932 54.3952 52.7505 54.4277 52.4971H55.043C55.0071 52.8761 54.8671 53.1726 54.623 53.3857C54.379 53.5971 54.0543 53.703 53.6494 53.7031C53.3663 53.7031 53.1158 53.6363 52.8994 53.5029C52.6846 53.3678 52.5186 53.1761 52.4014 52.9287C52.2842 52.6814 52.2237 52.3943 52.2188 52.0674V51.7354C52.2188 51.4001 52.2777 51.1042 52.3965 50.8486C52.5153 50.5931 52.6859 50.3962 52.9072 50.2578C53.1301 50.1196 53.3875 50.0508 53.6787 50.0508ZM56.96 50.0508C57.2495 50.0509 57.5057 50.1208 57.7285 50.2607C57.953 50.3991 58.127 50.5994 58.249 50.8613C58.3709 51.1216 58.4329 51.4251 58.4346 51.7715V51.9697C58.4345 52.3178 58.3743 52.6241 58.2539 52.8877C58.1335 53.1496 57.9608 53.3516 57.7363 53.4932C57.5135 53.6331 57.256 53.703 56.9648 53.7031C56.677 53.7031 56.4195 53.6329 56.1934 53.4932C55.9688 53.3516 55.7946 53.15 55.6709 52.8896C55.5489 52.6294 55.487 52.3292 55.4854 51.9893V51.7891C55.4854 51.4426 55.546 51.1363 55.668 50.8711C55.7917 50.6058 55.9655 50.4027 56.1885 50.2627C56.413 50.1212 56.6704 50.0508 56.96 50.0508ZM41.791 51.7842L42.6094 50.0996H43.293L42.1016 52.3457V53.6543H41.4814V52.3457L40.2871 50.0996H40.9736L41.791 51.7842ZM46.2373 53.6543H45.5928L45.3018 52.8262H43.9248L43.6367 53.6543H42.9951L44.3379 50.0996H44.8916L46.2373 53.6543ZM48.6221 52.167C48.4268 52.3151 48.3291 52.4844 48.3291 52.6748C48.3291 52.8392 48.3825 52.9727 48.4883 53.0752C48.594 53.1776 48.7358 53.2295 48.9131 53.2295C49.1131 53.2294 49.3006 53.1627 49.4746 53.0293L48.6982 52.1133L48.6221 52.167ZM56.96 50.5635C56.693 50.5635 56.4834 50.668 56.332 50.8779C56.1823 51.0863 56.1058 51.3822 56.1025 51.7646V51.9697C56.1026 52.3601 56.1788 52.6619 56.3301 52.875C56.4831 53.0881 56.6948 53.1953 56.9648 53.1953C57.238 53.1952 57.4483 53.091 57.5947 52.8828C57.7428 52.6746 57.8163 52.3699 57.8164 51.9697V51.7842C57.8164 51.3903 57.7415 51.0879 57.5918 50.8779C57.4438 50.6681 57.2332 50.5636 56.96 50.5635ZM44.0986 52.3281H45.1289L44.6133 50.8535L44.0986 52.3281ZM48.9639 50.5264C48.8484 50.5264 48.7568 50.5656 48.6885 50.6436C48.6201 50.7217 48.5859 50.8206 48.5859 50.9395C48.5861 51.0761 48.6695 51.2476 48.8369 51.4541L49.1084 51.2686L49.1836 51.208C49.2845 51.1185 49.335 51.0033 49.335 50.8633C49.335 50.7707 49.3001 50.692 49.2305 50.627C49.1605 50.5602 49.0713 50.5264 48.9639 50.5264ZM73 40.1338L66 33.5068V45.8135H32V13.627L45.0078 13.6338L38 7H73V40.1338ZM37.3799 41.1055H59.5234V39.6396H38.9453V19.458H37.3799V41.1055ZM65.6924 32.7275V13.918H45.8223L65.6924 32.7275Z" fill="#AFB1B8"/>
</svg>
